<?xml version="1.0" encoding="UTF-8" standalone="no"?>
<svg width="44px" height="64px" viewBox="0 0 44 64" version="1.1" xmlns="http://www.w3.org/2000/svg" xmlns:xlink="http://www.w3.org/1999/xlink" xmlns:sketch="http://www.bohemiancoding.com/sketch/ns">
    <!-- Generator: Sketch 3.3 (11970) - http://www.bohemiancoding.com/sketch -->
    <title>Imported Layers</title>
    <desc>Created with Sketch.</desc>
    <defs></defs>
    <g id="Logos" stroke="none" stroke-width="1" fill="none" fill-rule="evenodd" sketch:type="MSPage">
        <g sketch:type="MSArtboardGroup" transform="translate(-546.000000, -200.000000)" id="Imported-Layers">
            <g sketch:type="MSLayerGroup" transform="translate(546.000000, 200.000000)">
                <path d="M0.178181818,0 L0.178181818,49.2897627 L22.0192727,64 L43.8145455,49.2897627 L43.8145455,0 L0.178181818,0" id="Fill-1" fill="#FF3D00" sketch:type="MSShapeGroup"></path>
                <path d="M22.4392727,13.7769944 C26.228,13.7769944 30.1890909,14.7829153 33.5305455,19.5539887 L28.0247273,23.5744181 C26.0512727,20.9901921 24.3334545,20.0782825 22.3534545,20.0782825 C18.9218182,20.0782825 16.7632727,22.9156158 16.7632727,28.471322 C16.7632727,34.2038418 18.4469091,37.8782373 22.6738182,37.8782373 C23.6389091,37.8782373 24.5905455,37.6634576 25.7236364,37.3492429 L25.7236364,28.7450395 L33.6549091,28.7450395 L33.6549091,40.9430056 C31.3890909,42.6955932 27.0567273,43.9137627 22.6141818,43.9137627 C14.3872727,43.9137627 9.03745455,39.0078192 9.03745455,28.9135367 C9.03745455,17.5811977 16.1043636,13.7769944 22.4392727,13.7769944" id="Fill-2" fill="#FFFFFF" sketch:type="MSShapeGroup"></path>
            </g>
        </g>
    </g>
</svg>